<svg width="61" height="60" viewBox="0 0 61 60" fill="none" xmlns="http://www.w3.org/2000/svg" class="h-8 w-8"><g clip-path="url(#clip0_1053_8780)"><path d="M50.7293 17.5456C48.3544 17.1604 45.9184 17.5658 43.7964 18.6993C43.8431 17.9399 43.834 17.1782 43.7699 16.4203C43.1936 9.91308 37.4587 5.09986 30.9501 5.66179C26.6482 6.04122 23.3648 9.07283 21.639 12.3495C19.3668 9.4229 15.5999 7.0028 11.3043 7.38753C8.17733 7.65815 5.2868 9.16095 3.26877 11.5642C1.25075 13.9679 0.270865 17.0751 0.545329 20.2011C1.78186 34.3427 23.1279 45.2611 24.0312 45.7185C24.3687 45.8875 24.7727 45.8495 25.0727 45.6198C25.0727 45.6198 25.1989 45.5216 25.418 45.354C27.9084 48.6134 30.6718 51.6551 33.6788 54.4459C33.9576 54.6959 34.3544 54.7662 34.7025 54.6275C35.6468 54.25 57.8629 45.2293 60.3254 31.2557C61.4415 24.8241 57.1541 18.6988 50.7293 17.5456ZM2.50654 20.0297C2.27734 17.4242 3.09302 14.8346 4.77495 12.832C6.45688 10.8289 8.8659 9.57746 11.4719 9.3526C11.7155 9.33093 11.9577 9.32033 12.1975 9.32033C16.0602 9.32033 19.3412 12.0351 20.9505 14.8722C21.1363 15.2121 21.509 15.4067 21.8942 15.3653C22.2785 15.3316 22.6078 15.0773 22.7374 14.7143C23.9002 11.4501 26.9424 7.99184 31.1196 7.62396C36.5414 7.1617 41.3176 11.1674 41.8063 16.5869C41.9041 17.7435 41.8573 18.9073 41.6676 20.0523C41.5005 20.1823 41.345 20.3234 41.1852 20.4607C41.0864 20.5464 40.982 20.6273 40.8895 20.7159C40.5809 20.9951 40.2818 21.285 40.0016 21.5879C38.57 18.1739 35.5639 14.8703 31.3078 14.1206C24.8758 12.9991 18.7475 17.2899 17.6006 23.7176C17.5216 24.1654 17.4657 24.6152 17.4282 25.0668C17.4152 25.2209 17.4152 25.3755 17.4075 25.5305C17.3906 25.8262 17.3738 26.1218 17.3738 26.4257C17.3738 26.6101 17.3868 26.7945 17.3926 26.9789C17.4012 27.249 17.4084 27.5182 17.4301 27.7888C17.446 27.9858 17.4715 28.1832 17.4942 28.3801C17.5226 28.6377 17.5495 28.8939 17.5929 29.1515C17.6232 29.3547 17.6627 29.5579 17.6993 29.7611C17.7445 30.0115 17.7898 30.2619 17.8452 30.5113C17.8895 30.7174 17.9439 30.9235 17.992 31.1286C18.0532 31.3742 18.1143 31.6217 18.1822 31.8624C18.2405 32.0704 18.3036 32.2765 18.3676 32.4836C18.4418 32.7243 18.5169 32.9627 18.5978 33.2015C18.6676 33.4086 18.7408 33.6137 18.8154 33.8188C18.9021 34.0557 18.9902 34.2922 19.0827 34.5271C19.1621 34.7299 19.244 34.9331 19.3282 35.1353C19.427 35.3679 19.5257 35.599 19.6244 35.8258C19.7139 36.0227 19.8025 36.225 19.8955 36.4233C20.0028 36.653 20.1122 36.8798 20.2239 37.1066C20.3226 37.304 20.4141 37.4942 20.5128 37.6854C20.6288 37.9131 20.7473 38.1371 20.8676 38.361C20.9664 38.5473 21.0651 38.7327 21.1638 38.9171C21.2899 39.1429 21.418 39.3649 21.5461 39.5879C21.6448 39.7622 21.7435 39.9389 21.8509 40.1113C21.9862 40.3381 22.1239 40.56 22.2612 40.782C22.3599 40.9438 22.4586 41.1075 22.5568 41.2664C22.7061 41.5009 22.8529 41.7296 23.0065 41.9564C23.0985 42.0956 23.189 42.2367 23.28 42.3725C23.4534 42.631 23.6277 42.8814 23.8015 43.1318C23.8713 43.2305 23.9416 43.336 24.0115 43.4347L24.0452 43.4852C20.0433 41.2948 3.51868 31.5567 2.51087 20.0297H2.50654ZM58.3844 30.9196C56.3134 42.6349 38.0206 51.0546 34.5398 52.5574C31.5953 49.7546 28.8906 46.7099 26.4532 43.4563C26.4349 43.4241 26.4142 43.3928 26.3921 43.3629C22.6112 38.2642 18.3551 30.7776 19.5406 24.0629C20.4906 18.7041 25.6009 15.1264 30.9616 16.0673C35.0906 16.7939 37.8165 20.505 38.6885 23.8577C38.7858 24.2314 39.092 24.514 39.4724 24.5805C39.8528 24.6469 40.2371 24.4856 40.4557 24.1674C40.8187 23.6406 41.2266 23.1456 41.6744 22.6881C42.1318 22.2215 42.6263 21.7925 43.1536 21.4063C45.1976 19.8 47.8132 19.1081 50.384 19.4933C55.7394 20.4534 59.3137 25.5584 58.3844 30.9196Z" fill="currentColor"></path><path d="M10.383 41.1793C10.2886 41.0907 10.1778 41.0204 10.0575 40.9722C9.81768 40.8725 9.54803 40.8725 9.30775 40.9722C9.06025 41.0618 8.86524 41.2573 8.77568 41.5048C8.61822 41.8717 8.70008 42.2973 8.98225 42.58C9.2649 42.8622 9.69056 42.944 10.0575 42.787C10.1769 42.7365 10.2867 42.6667 10.383 42.58C10.6651 42.2973 10.747 41.8717 10.59 41.5048C10.5424 41.3844 10.4721 41.2736 10.383 41.1793Z" fill="currentColor"></path><path d="M56.0316 9.33688C56.294 9.33976 56.5463 9.23672 56.7317 9.05134C56.9171 8.86547 57.0202 8.61316 57.0178 8.35073C57.0139 8.08975 56.9118 7.83985 56.7317 7.65061C56.6831 7.60631 56.6301 7.56635 56.5738 7.53264C56.5232 7.49364 56.4669 7.4633 56.4062 7.44356C56.347 7.41371 56.2834 7.39348 56.218 7.38433C56.0918 7.35496 55.9603 7.35496 55.8342 7.38433C55.7726 7.39541 55.7128 7.41515 55.6565 7.44356C55.5934 7.46523 55.5337 7.49508 55.4784 7.53264C55.4273 7.56924 55.3782 7.60872 55.3315 7.65061C55.1509 7.83937 55.0484 8.08975 55.0455 8.35073C55.0426 8.61316 55.1456 8.86547 55.331 9.05134C55.5169 9.23672 55.7692 9.33976 56.0316 9.33688Z" fill="currentColor"></path><path d="M51.3869 14.9681C51.6691 15.2522 52.0952 15.3379 52.465 15.1843C52.8353 15.0307 53.0756 14.6681 53.0732 14.2675C53.0693 14.0065 52.9672 13.7566 52.7872 13.5674C52.7376 13.5279 52.6884 13.4889 52.6292 13.4494C52.5787 13.4104 52.5223 13.3801 52.4616 13.3603C52.4024 13.3305 52.3389 13.3102 52.2734 13.3011C52.0846 13.2611 51.8882 13.2818 51.7119 13.3603C51.5916 13.408 51.4808 13.4783 51.3869 13.5674C51.2063 13.7561 51.1038 14.0065 51.1009 14.2675C51.098 14.5299 51.201 14.7822 51.3869 14.9681Z" fill="currentColor"></path><path d="M18.2722 55.9715C18.1779 55.8829 18.0671 55.8126 17.9467 55.7645C17.5793 55.6104 17.1556 55.6918 16.872 55.9715C16.7848 56.0678 16.7145 56.1776 16.6649 56.297C16.6144 56.4155 16.5874 56.5431 16.586 56.6716C16.5826 56.8012 16.6096 56.9297 16.6649 57.0467C16.715 57.1657 16.7848 57.276 16.872 57.3723C17.2606 57.7536 17.8832 57.7536 18.2722 57.3723C18.3589 57.276 18.4287 57.1657 18.4793 57.0467C18.5843 56.8079 18.5843 56.5359 18.4793 56.297C18.4292 56.1776 18.3594 56.0678 18.2722 55.9715Z" fill="currentColor"></path><path d="M9.68291 47.7965H8.69676V46.8104C8.69676 46.2658 8.25522 45.8242 7.71062 45.8242C7.16603 45.8242 6.72448 46.2658 6.72448 46.8104V47.7965H5.73834C5.19375 47.7965 4.7522 48.2381 4.7522 48.7826C4.7522 49.3272 5.19375 49.7688 5.73834 49.7688H6.72448V50.7549C6.72448 51.2995 7.16603 51.7411 7.71062 51.7411C8.25522 51.7411 8.69676 51.2995 8.69676 50.7549V49.7688H9.68291C10.2275 49.7688 10.669 49.3272 10.669 48.7826C10.669 48.2381 10.2275 47.7965 9.68291 47.7965Z" fill="currentColor"></path><path d="M46.1702 6.37816H47.1564V7.3643C47.1564 7.9089 47.5979 8.35044 48.1425 8.35044C48.6871 8.35044 49.1286 7.9089 49.1286 7.3643V6.37816H50.1148C50.6594 6.37816 51.1009 5.93661 51.1009 5.39202C51.1009 4.84743 50.6594 4.40588 50.1148 4.40588H49.1286V3.41974C49.1286 2.87514 48.6871 2.43359 48.1425 2.43359C47.5979 2.43359 47.1564 2.87514 47.1564 3.41974V4.40588H46.1702C45.6256 4.40588 45.1841 4.84743 45.1841 5.39202C45.1841 5.93661 45.6256 6.37816 46.1702 6.37816Z" fill="currentColor"></path></g><defs><clipPath id="clip0_1053_8780"><rect width="60" height="60" fill="white" transform="translate(0.5)"></rect></clipPath></defs></svg>