<svg width="61" height="58" viewBox="0 0 61 58" fill="none" xmlns="http://www.w3.org/2000/svg" class="h-8 w-8"><path d="M60.4274 32.4471C59.984 29.3754 57.5709 26.9623 54.4992 26.519V24.701C54.4992 19.6851 50.6863 15.6011 45.9993 15.6011C41.4474 15.6011 37.6365 19.5611 37.4995 24.429H37.5575L37.4995 24.439V44.1457C37.4995 50.4456 32.7895 55.5615 26.9996 55.5615C21.2097 55.5615 16.4998 50.4386 16.4998 44.1457V42.4387C17.9497 42.4387 19.4997 41.3877 19.4997 38.4388V35.9238C25.9176 34.2828 30.4996 28.7719 30.4996 22.524V20.4391H28.4996L28.4576 7.42424C28.4431 5.01515 26.7144 2.95818 24.3437 2.52931C23.8323 0.962713 22.1477 0.107225 20.581 0.618718C19.0144 1.13009 18.1589 2.81469 18.6704 4.38141C19.1817 5.94801 20.8663 6.8035 22.4331 6.29201C23.2719 6.01814 23.9465 5.38702 24.2757 4.56829C25.5568 4.93278 26.4442 6.09826 26.4546 7.43024L26.4996 20.4391H24.4997V22.553C24.4199 26.0313 22.0879 29.0541 18.7437 30.0139C16.9544 30.5817 15.0332 30.5817 13.2438 30.0139C9.90349 29.0508 7.57677 26.0286 7.4999 22.553V20.4391H4.49994V7.43924C4.50569 6.08764 5.41468 4.90666 6.71991 4.55529C7.32853 6.10464 9.07787 6.86713 10.6272 6.25851C12.1766 5.64989 12.9391 3.90042 12.3305 2.35119C11.7218 0.801965 9.97236 0.0393512 8.42313 0.647967C7.58365 0.977837 6.93591 1.6662 6.65791 2.52431C4.26132 2.93381 2.5066 5.0079 2.49997 7.43924V20.4391H0.5V22.519C0.5 28.7739 5.08493 34.2868 11.4998 35.9238V38.4388C11.4998 41.3877 13.0498 42.4387 14.4998 42.4387V44.1457C14.4998 51.5456 20.1067 57.5615 26.9996 57.5615C33.8925 57.5615 39.4994 51.5386 39.4994 44.1457V24.487C39.5994 20.692 42.5174 17.6041 45.9993 17.6041C49.5833 17.6041 52.4992 20.788 52.4992 24.704V26.519C48.6729 27.0712 46.0188 30.6208 46.5711 34.4471C47.1233 38.2734 50.6729 40.9275 54.4992 40.3753C58.3255 39.823 60.9796 36.2733 60.4274 32.4471ZM21.4997 4.43929C20.9475 4.43929 20.4997 3.99154 20.4997 3.4393C20.4997 2.88706 20.9475 2.43932 21.4997 2.43932C22.0519 2.43932 22.4997 2.88706 22.4997 3.4393C22.4997 3.99154 22.0519 4.43929 21.4997 4.43929ZM9.49987 2.43932C10.0521 2.43932 10.4999 2.88706 10.4999 3.4393C10.4999 3.99154 10.0521 4.43929 9.49987 4.43929C8.94763 4.43929 8.49988 3.99154 8.49988 3.4393C8.49988 2.88706 8.94763 2.43932 9.49987 2.43932ZM2.49997 22.519V22.439H5.49993V22.553C5.57493 26.8993 8.46651 30.6924 12.6378 31.9159C14.8237 32.608 17.1699 32.608 19.3557 31.9159C23.529 30.694 26.4232 26.9008 26.4996 22.553V22.439H28.4996V22.519C28.4996 28.0819 24.2117 32.9769 18.2997 34.1609C16.9115 34.4388 15.4895 34.5086 14.0808 34.3678C13.6171 34.3228 13.1561 34.2531 12.6998 34.1589C6.78791 32.9769 2.49997 28.0819 2.49997 22.519ZM14.4998 40.4388C13.5998 40.4388 13.4998 39.0388 13.4998 38.4388V36.3168C13.5798 36.3268 13.6618 36.3308 13.7428 36.3388C13.8428 36.3498 13.9428 36.3578 14.0428 36.3668C14.5158 36.4088 14.9928 36.4368 15.4738 36.4378H15.5238C16.0038 36.4378 16.4798 36.4088 16.9498 36.3668C17.0498 36.3578 17.1558 36.3498 17.2588 36.3388C17.3378 36.3298 17.4198 36.3268 17.4988 36.3168V38.4388C17.4988 39.0388 17.3988 40.4388 16.4988 40.4388H14.4998ZM53.4992 38.4388C50.7379 38.4388 48.4993 36.2002 48.4993 33.4389C48.4993 30.6775 50.7379 28.4389 53.4992 28.4389C56.2606 28.4389 58.4992 30.6775 58.4992 33.4389C58.4959 36.1989 56.2592 38.4355 53.4992 38.4388Z" fill="currentColor"></path></svg>