<svg version="1.0" xmlns="http://www.w3.org/2000/svg" width="512.000000pt" height="512.000000pt" viewBox="0 0 512.000000 512.000000" preserveAspectRatio="xMidYMid meet" class="h-8 w-8"><g transform="translate(0.000000,512.000000) scale(0.100000,-0.100000)" fill="#000000" stroke="none"><path d="M1580 5114 c-155 -20 -348 -71 -440 -117 -55 -27 -72 -64 -49 -105 20 -37 61 -50 102 -33 174 70 305 99 482 108 277 13 494 -48 619 -174 176 -178 177 -420 1 -598 -74 -75 -143 -115 -260 -151 -83 -25 -103 -28 -270 -28 -128 -1 -214 4 -298 17 -141 22 -225 13 -325 -33 -155 -72 -277 -252 -301 -445 l-6 -50 -40 0 -40 0 0 390 c0 342 2 400 18 468 24 102 83 217 151 296 72 83 74 133 7 160 -40 17 -74 -2 -131 -73 -109 -135 -170 -285 -189 -458 -6 -54 -11 -265 -11 -471 l0 -374 -26 -24 c-43 -39 -74 -116 -73 -179 2 -149 103 -252 262 -267 l67 -6 0 -43 c0 -188 81 -422 201 -580 l51 -68 -38 -30 c-182 -143 -332 -346 -415 -561 l-26 -70 -57 -7 c-84 -11 -162 -58 -260 -155 l-85 -85 -59 -1 c-49 -2 -65 -7 -87 -27 -33 -30 -55 -71 -55 -101 0 -35 300 -1182 316 -1206 30 -48 108 -37 127 17 7 19 -25 157 -137 588 -81 310 -146 567 -144 571 3 8 1959 -598 1985 -615 11 -7 17 -68 29 -279 14 -269 14 -270 40 -292 33 -30 69 -29 101 3 24 24 25 29 19 102 -3 42 -8 139 -12 214 l-7 137 64 -27 c57 -24 76 -27 184 -27 108 0 127 3 184 27 l63 27 -6 -67 c-3 -37 -8 -135 -12 -218 l-7 -150 28 -22 c43 -34 87 -25 112 23 6 11 17 136 24 277 7 142 15 261 18 266 3 5 155 55 336 112 899 280 960 300 972 317 23 30 16 79 -13 102 -15 12 -32 21 -39 21 -22 0 -1320 -407 -1354 -424 -17 -9 -53 -36 -80 -60 -69 -62 -126 -81 -236 -81 -78 0 -97 4 -142 28 -29 15 -75 47 -102 71 -55 49 -57 50 -556 204 -309 96 -1135 353 -1298 404 l-98 31 53 54 c58 59 118 93 165 93 46 0 1180 -344 1323 -401 200 -80 298 -138 455 -271 148 -125 284 -119 436 20 96 87 165 132 302 197 154 73 191 85 792 268 488 148 536 161 610 161 71 1 88 -3 145 -31 36 -18 78 -45 94 -62 l28 -29 -161 -51 c-169 -54 -181 -62 -181 -119 0 -29 20 -54 53 -65 11 -4 113 22 248 64 127 39 232 69 234 67 3 -2 -74 -256 -170 -564 -96 -307 -175 -567 -175 -577 0 -26 45 -67 75 -67 55 0 62 18 253 630 100 322 182 596 182 610 0 74 -72 134 -152 127 -44 -4 -49 -1 -85 35 -56 58 -153 125 -225 156 -54 23 -77 26 -163 26 -88 -1 -116 -6 -231 -41 l-132 -40 -63 73 c-34 41 -65 74 -68 74 -3 1 -25 18 -48 39 l-42 38 30 42 c17 22 34 41 39 41 4 0 33 -16 65 -35 129 -77 314 -115 467 -96 153 20 218 72 226 181 4 50 0 69 -26 124 -74 157 -202 312 -313 375 l-52 29 -1 79 c-1 69 -5 85 -28 121 l-28 42 0 368 c0 414 -2 429 -71 571 -89 181 -279 330 -518 405 -148 47 -247 59 -431 52 -91 -3 -179 -8 -196 -12 l-31 -6 -6 164 c-3 99 -12 189 -22 228 -48 194 -178 356 -355 443 -84 41 -226 87 -269 87 -9 0 -45 20 -80 45 -129 90 -299 134 -541 139 -85 3 -171 2 -190 0z m1004 -400 c161 -81 258 -210 292 -391 10 -53 14 -127 12 -222 l-3 -143 -58 -24 c-32 -14 -80 -38 -108 -55 l-50 -31 -72 69 c-44 42 -99 82 -142 103 -39 19 -72 36 -74 37 -2 1 18 26 44 55 58 65 98 133 127 218 33 94 31 248 -4 343 -14 37 -23 67 -21 67 3 0 28 -12 57 -26z m-219 -818 c41 -19 96 -57 130 -88 l58 -54 -45 -55 c-54 -68 -100 -146 -124 -217 -14 -39 -23 -51 -34 -46 -100 43 -169 42 -251 -2 -79 -44 -129 -122 -132 -210 -2 -53 26 -87 72 -87 42 0 67 26 75 76 13 80 90 126 155 93 59 -31 61 -44 61 -380 0 -294 -1 -306 -21 -341 -28 -47 -40 -112 -30 -158 l9 -36 -64 -37 c-61 -35 -169 -138 -225 -214 l-27 -35 -124 -3 c-100 -3 -142 1 -214 18 -326 77 -577 342 -639 674 -14 74 -16 143 -13 425 4 336 4 336 31 414 33 93 62 142 113 186 83 73 175 92 324 66 52 -9 169 -19 260 -22 186 -6 299 8 411 51 84 32 148 28 244 -18z m1247 -49 c259 -68 450 -235 512 -446 13 -45 16 -112 16 -383 l0 -328 -24 0 c-22 0 -26 7 -35 53 -18 83 -54 148 -126 228 -37 41 -91 108 -120 149 -59 82 -72 93 -134 110 -58 15 -104 0 -187 -62 -135 -103 -270 -148 -521 -173 -171 -18 -261 -41 -329 -87 -55 -37 -109 -117 -119 -179 -6 -35 -10 -39 -37 -39 l-30 0 5 308 c5 340 10 372 73 493 81 153 234 275 425 338 128 42 195 50 369 47 138 -3 181 -7 262 -29z m-2782 -613 l0 -117 -57 6 c-50 5 -63 11 -90 41 -47 51 -46 105 1 152 31 31 40 34 90 34 l56 0 0 -116z m2893 -216 c30 -40 83 -105 119 -145 95 -106 101 -126 106 -415 2 -147 0 -264 -7 -309 -38 -239 -207 -440 -436 -516 -102 -34 -264 -38 -360 -9 -141 42 -276 140 -354 256 -23 35 -53 102 -73 162 l-33 103 0 256 0 255 30 59 c45 88 94 110 288 130 284 29 458 87 597 200 30 24 58 44 62 45 4 0 31 -33 61 -72z m-1193 -548 l0 -70 -33 0 c-43 0 -70 29 -69 72 1 39 32 68 73 68 l29 0 0 -70z m1650 50 c24 -24 26 -77 3 -102 -9 -10 -30 -18 -50 -18 l-33 0 0 70 0 70 30 0 c17 0 39 -9 50 -20z m-1705 -267 l51 -5 12 -97 c6 -53 19 -118 28 -145 17 -49 17 -49 -7 -69 -103 -83 -298 -131 -439 -108 -105 17 -107 31 -22 175 82 139 240 275 302 261 14 -3 48 -9 75 -12z m1830 -13 c108 -62 186 -148 250 -280 49 -98 46 -112 -30 -128 -138 -29 -349 19 -453 104 l-23 19 20 75 c10 41 22 108 26 148 l7 72 42 1 c22 0 50 4 61 9 33 14 45 12 100 -20z m-2934 -185 c17 -6 19 -17 19 -100 0 -64 6 -112 20 -156 74 -239 328 -361 568 -275 52 19 92 45 152 101 44 41 48 42 140 53 112 12 232 49 313 98 32 19 62 34 66 34 4 0 22 -20 39 -43 l31 -44 -50 -38 c-54 -41 -138 -133 -186 -205 -75 -112 -144 -286 -158 -402 -4 -32 -10 -58 -14 -58 -3 0 -23 11 -42 24 -60 41 -232 124 -352 170 -61 24 -348 114 -637 201 -289 86 -526 159 -528 160 -2 2 11 38 28 81 68 170 193 339 332 449 l80 63 80 -54 c44 -29 89 -56 99 -59z m400 -102 l126 -6 -9 -37 c-15 -57 6 -116 57 -168 l44 -43 -32 -19 c-17 -11 -54 -24 -82 -30 -168 -35 -335 102 -335 275 l0 63 53 -15 c28 -8 109 -17 178 -20z m1125 -378 l61 -39 6 -79 c6 -96 47 -186 106 -240 l39 -36 -101 -50 c-126 -61 -221 -125 -312 -208 -93 -85 -140 -95 -212 -47 -25 16 -25 18 -18 97 3 44 15 114 26 156 24 100 106 261 169 334 50 58 161 159 170 154 3 -1 33 -20 66 -42z m993 -31 c45 -42 81 -79 81 -83 0 -7 -311 -103 -316 -98 -2 1 1 20 6 42 5 22 10 61 10 87 0 45 1 47 54 77 30 16 57 35 61 41 11 18 22 11 104 -66z m-534 -90 c50 3 105 10 124 16 19 5 37 8 39 6 2 -3 -3 -28 -12 -58 -16 -58 -69 -119 -119 -137 -44 -17 -114 -13 -156 8 -50 26 -97 81 -110 128 -17 61 -18 61 67 45 49 -8 110 -11 167 -8z"></path><path d="M1336 3454 c-64 -20 -137 -92 -159 -159 -30 -86 -20 -133 32 -154 24 -10 34 -10 60 3 17 9 33 26 35 39 3 12 7 35 11 50 12 57 75 97 131 83 34 -9 72 -48 79 -80 3 -14 7 -37 10 -51 4 -16 18 -31 39 -41 30 -15 35 -15 64 0 36 19 47 49 38 107 -15 93 -89 177 -180 204 -61 18 -97 18 -160 -1z"></path><path d="M1551 2704 c-31 -40 -27 -71 17 -111 135 -127 363 -128 507 -2 42 37 48 86 15 119 -29 29 -69 25 -123 -14 -101 -72 -199 -69 -303 10 -42 32 -87 31 -113 -2z"></path><path d="M2920 2644 c-75 -32 -130 -111 -130 -187 0 -102 114 -122 141 -24 7 23 19 50 27 60 34 39 112 6 112 -48 0 -33 42 -75 73 -75 13 0 36 9 51 21 68 53 3 208 -106 253 -47 20 -122 20 -168 0z"></path><path d="M3535 2641 c-74 -34 -125 -111 -125 -189 0 -60 50 -97 105 -76 19 8 45 55 45 82 0 46 81 71 112 35 9 -10 18 -35 22 -55 12 -64 69 -87 120 -47 21 16 26 29 26 62 -1 149 -168 252 -305 188z"></path><path d="M3091 2064 c-31 -39 -26 -63 23 -109 52 -51 118 -75 201 -75 84 0 149 24 202 76 40 37 45 47 38 71 -17 69 -72 82 -144 33 -35 -24 -55 -30 -96 -30 -41 0 -61 6 -96 30 -57 38 -100 39 -128 4z"></path></g></svg>