<svg version="1.0" xmlns="http://www.w3.org/2000/svg" width="512.000000pt" height="512.000000pt" viewBox="0 0 512.000000 512.000000" preserveAspectRatio="xMidYMid meet" class="h-8 w-8"><g transform="translate(0.000000,512.000000) scale(0.100000,-0.100000)" fill="#000000" stroke="none"><path d="M3071 5103 c-13 -11 -40 -68 -66 -141 -64 -178 -97 -235 -190 -328 -130 -130 -250 -184 -430 -191 -144 -6 -210 9 -385 92 -76 36 -144 65 -153 65 -8 0 -26 -9 -41 -21 -30 -23 -34 -68 -11 -109 25 -44 20 -50 -44 -50 -51 0 -61 3 -75 25 -23 34 -60 51 -143 64 -39 6 -74 11 -77 11 -3 0 -24 37 -47 81 -52 100 -81 122 -157 116 -66 -5 -96 -31 -142 -126 l-33 -69 -81 -12 c-83 -12 -118 -27 -149 -66 -17 -22 -23 -23 -235 -26 -213 -3 -218 -4 -267 -30 -69 -36 -133 -102 -164 -168 l-26 -55 0 -1955 0 -1955 23 -47 c37 -74 96 -134 170 -170 l67 -33 1540 -3 c1126 -2 1551 0 1581 9 126 34 192 185 131 300 l-24 44 24 44 23 44 0 808 0 807 50 11 c79 17 208 13 292 -8 41 -11 134 -47 206 -81 139 -65 168 -69 197 -27 24 34 18 57 -44 188 -73 155 -90 211 -97 324 -16 254 128 505 356 620 25 12 99 42 165 65 66 23 128 49 138 58 9 8 17 29 17 47 0 51 -26 70 -155 115 -66 23 -142 54 -169 67 -121 61 -220 161 -282 285 -35 69 -55 88 -97 88 -31 0 -67 -39 -67 -75 0 -56 112 -230 200 -309 55 -50 181 -132 225 -146 19 -6 35 -15 35 -20 0 -5 -16 -14 -35 -20 -44 -14 -170 -96 -225 -146 -90 -81 -173 -211 -215 -335 -56 -164 -56 -354 0 -518 14 -41 25 -76 25 -78 0 -1 -21 6 -47 16 -148 58 -372 67 -518 21 -217 -68 -385 -209 -489 -409 l-43 -84 -26 56 c-101 221 -307 389 -547 447 -148 35 -331 24 -471 -30 -30 -11 -55 -20 -56 -20 -1 0 6 19 16 43 55 129 72 338 37 481 -19 79 -79 213 -127 282 -72 104 -201 211 -320 265 -27 13 -49 25 -49 29 0 4 22 16 49 29 119 54 248 161 320 265 48 69 108 203 127 282 35 143 18 352 -37 482 -10 23 -17 42 -16 42 1 0 26 -9 56 -20 190 -73 430 -65 615 19 176 80 325 226 403 398 l26 56 43 -84 c104 -200 272 -341 489 -409 146 -46 370 -37 518 21 26 10 47 17 47 16 0 -2 -11 -35 -24 -74 -13 -39 -29 -104 -35 -144 -11 -67 -10 -75 7 -99 13 -17 30 -26 55 -28 51 -4 72 21 86 104 16 95 25 121 92 263 63 131 68 154 44 188 -29 42 -58 38 -194 -25 -194 -92 -215 -97 -371 -97 -121 0 -143 3 -208 27 -104 37 -175 83 -251 159 -86 86 -121 146 -182 315 -51 141 -72 174 -114 174 -13 0 -32 -8 -44 -17z m-1716 -701 c16 -13 56 -26 100 -33 l75 -12 -55 -58 c-63 -69 -73 -102 -56 -190 7 -34 10 -63 8 -66 -3 -2 -33 10 -67 28 -78 40 -118 41 -197 0 -34 -17 -64 -31 -66 -31 -3 0 0 24 5 53 6 28 8 74 5 100 -4 43 -11 55 -62 107 l-58 58 59 7 c108 14 138 35 186 130 l31 59 33 -66 c18 -36 45 -75 59 -86z m-441 -181 l49 -49 -13 -81 c-7 -44 -10 -95 -6 -114 8 -41 51 -84 97 -97 41 -12 53 -9 150 37 l77 36 64 -35 c89 -49 117 -54 173 -29 37 16 50 29 66 65 19 43 19 50 5 128 l-14 83 51 53 51 52 112 0 112 0 16 -45 c59 -175 34 -386 -65 -551 -45 -74 -169 -191 -244 -230 -33 -18 -114 -51 -180 -74 -133 -46 -158 -64 -158 -110 0 -18 8 -39 19 -50 10 -10 78 -39 151 -65 168 -60 237 -101 328 -196 121 -127 179 -272 179 -449 0 -121 -19 -191 -94 -352 -33 -70 -60 -141 -60 -157 0 -31 38 -71 67 -71 8 0 77 29 154 65 178 83 241 98 384 92 88 -3 125 -10 185 -32 103 -38 187 -93 262 -173 74 -79 113 -149 168 -301 l40 -112 -59 -57 c-78 -76 -105 -146 -99 -252 11 -175 147 -304 323 -303 148 0 277 121 205 193 -29 29 -81 26 -110 -5 -52 -55 -148 -53 -215 6 -41 37 -59 86 -53 150 12 120 137 183 257 129 50 -23 69 -24 93 -6 26 19 37 57 26 89 -13 35 -90 76 -159 84 -30 4 -48 10 -46 17 2 6 21 57 42 114 21 56 55 129 76 162 41 64 139 164 188 193 l31 18 0 -643 0 -643 -1207 3 c-665 1 -1218 0 -1231 -3 -50 -12 -59 -110 -12 -135 12 -6 454 -10 1214 -10 1183 0 1196 0 1216 -20 26 -26 26 -64 0 -90 -20 -20 -33 -20 -1494 -20 l-1473 0 -27 -21 c-36 -28 -36 -80 0 -108 l27 -21 1473 0 c1461 0 1474 0 1494 -20 26 -26 26 -64 0 -90 -20 -20 -29 -20 -1554 -18 l-1534 3 -43 30 c-119 84 -119 256 0 340 l43 30 186 3 c174 3 189 5 210 24 30 29 29 78 -2 107 -23 22 -28 22 -217 19 -186 -3 -196 -4 -251 -30 l-58 -27 0 1734 c0 1049 4 1743 9 1758 14 37 72 98 106 113 22 10 89 13 240 14 l211 0 48 -49z"></path><path d="M1089 2907 c-28 -18 -90 -114 -111 -170 -2 -4 -44 -14 -93 -22 -82 -13 -93 -17 -122 -49 -67 -72 -58 -132 33 -225 l65 -66 -10 -61 c-23 -127 -6 -185 62 -217 52 -25 79 -21 167 23 l80 40 80 -40 c88 -44 115 -48 167 -23 68 32 87 99 63 223 l-10 53 64 67 c89 92 100 164 35 229 -28 29 -59 39 -174 56 -38 6 -42 10 -80 83 -61 118 -136 153 -216 99z m146 -277 c30 -33 63 -47 133 -55 34 -4 62 -10 62 -14 0 -4 -20 -23 -44 -43 -74 -62 -91 -132 -60 -253 6 -24 6 -24 -58 10 -86 47 -129 46 -216 -2 -64 -36 -65 -36 -58 -12 3 13 9 53 13 90 7 78 -4 103 -72 169 l-46 45 74 11 c41 7 86 19 100 28 14 10 42 49 63 89 l38 72 25 -57 c14 -31 35 -66 46 -78z"></path><path d="M2214 1746 c-23 -7 -57 -25 -76 -40 l-35 -26 -44 20 c-52 23 -135 26 -184 5 -31 -13 -38 -12 -65 3 -27 15 -32 16 -57 2 -52 -29 -53 -42 -23 -326 15 -143 33 -270 39 -282 14 -27 55 -38 90 -26 47 17 50 42 30 234 -10 96 -17 185 -14 197 15 65 104 86 147 35 22 -26 26 -48 42 -212 17 -165 21 -186 42 -207 30 -30 69 -29 99 2 29 28 30 36 10 210 -21 184 -20 217 8 242 30 28 59 35 90 24 47 -18 56 -47 77 -241 21 -203 29 -223 90 -223 47 0 75 33 73 85 -5 118 -37 357 -52 393 -47 108 -177 167 -287 131z"></path><path d="M664 1629 c-63 -15 -144 -69 -185 -123 -154 -203 -22 -495 232 -514 101 -7 169 17 235 83 29 29 56 65 60 79 25 99 -86 143 -141 55 -58 -91 -184 -94 -262 -6 -109 124 12 315 175 278 49 -10 80 2 102 42 13 24 13 30 0 55 -9 15 -27 32 -41 39 -36 17 -127 24 -175 12z"></path><path d="M2640 1550 c-29 -29 -27 -94 2 -114 12 -9 34 -16 48 -16 44 0 70 26 70 71 0 48 -27 79 -70 79 -17 0 -39 -9 -50 -20z"></path><path d="M1297 1430 c-143 -36 -238 -152 -245 -300 -5 -101 22 -175 90 -243 70 -70 124 -92 228 -92 73 0 93 4 142 28 128 63 199 200 176 343 -10 65 -27 103 -75 161 -65 80 -213 129 -316 103z m167 -169 c77 -48 102 -166 52 -241 -89 -135 -299 -87 -314 71 -2 26 -2 60 2 74 9 37 73 103 110 115 43 13 112 4 150 -19z"></path><path d="M2639 1321 c-24 -19 -24 -20 -24 -239 0 -202 2 -222 19 -241 23 -25 72 -28 104 -5 22 15 22 19 22 240 0 211 -1 225 -20 244 -25 25 -71 26 -101 1z"></path><path d="M3068 4148 c-9 -7 -30 -48 -46 -91 -37 -96 -69 -138 -130 -174 -41 -24 -58 -28 -127 -28 -70 0 -89 4 -149 33 -37 17 -79 32 -93 32 -27 0 -73 -41 -73 -66 0 -9 17 -53 37 -98 49 -109 51 -177 8 -261 -37 -72 -90 -115 -181 -145 -76 -26 -104 -49 -104 -86 0 -45 18 -62 104 -94 104 -39 147 -74 183 -148 41 -83 38 -151 -10 -258 -20 -45 -37 -89 -37 -98 0 -25 46 -66 73 -66 14 0 56 15 93 33 60 28 79 32 149 32 70 0 86 -4 128 -28 60 -36 98 -87 133 -183 28 -79 44 -94 93 -94 38 0 63 32 91 114 55 167 214 239 375 170 114 -49 113 -49 141 -39 16 6 33 23 40 40 11 28 9 39 -22 110 -44 101 -51 155 -30 229 23 78 89 145 172 174 85 31 107 44 124 75 13 24 13 30 0 54 -17 31 -39 44 -124 75 -83 29 -149 96 -172 174 -21 74 -14 128 30 229 31 71 33 82 22 110 -7 17 -24 34 -40 40 -28 10 -27 10 -141 -39 -117 -50 -241 -26 -317 63 -20 23 -48 75 -62 115 -15 41 -35 81 -45 90 -21 19 -71 21 -93 4z m185 -391 c68 -40 148 -59 232 -55 l74 3 -6 -55 c-12 -120 41 -255 134 -341 l55 -49 -55 -49 c-93 -86 -146 -221 -134 -341 l6 -55 -74 3 c-131 6 -236 -37 -323 -133 l-48 -53 -47 54 c-34 38 -70 64 -124 91 -73 36 -81 38 -176 38 l-99 0 7 51 c14 118 -43 264 -139 350 l-48 44 48 44 c96 86 153 232 139 350 l-7 51 76 -3 c131 -6 251 45 331 141 l38 45 49 -53 c27 -29 68 -65 91 -78z"></path><path d="M3989 1887 c-125 -47 -191 -139 -191 -264 -1 -208 220 -336 403 -236 94 51 146 149 137 260 -10 139 -113 239 -257 249 -33 3 -71 -1 -92 -9z m131 -152 c76 -39 94 -127 39 -189 -36 -41 -81 -53 -133 -36 -96 31 -105 178 -14 223 41 21 71 21 108 2z"></path></g></svg>