<svg xmlns="http://www.w3.org/2000/svg" viewBox="0 0 512 512" id="head" class="h-8 w-8"><path d="m270.95,389.54c2.71,35.1-52.72,60.68-56.37,31.36.85-15.12,13.83-10.12,22.76-15.53,5.39-3.5,8.6-9.42,8.6-15.83.06-16.33,24.93-16.35,25,0Zm129.47-171.19c-13.56,13.43-28.26,25.7-41.89,36.13,5.89,42.67-24.84,79.68-23.45,121.24,0,42.69,9.77,106.52-51.33,108.77,0,0-70.45,0-70.45,0-12.59,0-23.49-8.54-26.51-20.77,0,0-7.25-29.41-7.25-29.41-.13-.54-.61-.91-1.15-.91-61.67-.43-79.7,10.04-87.84-61.79-10.92-2.58-25.64-4.86-30.46-16.68-9.73-14.75,13.64-48.97,17.8-62.85,2.87-6.55,4.33-13.49,4.33-20.64-1.15-32.07,8.11-64.44,27.03-89.57,10-13.42,22.03-24.68,35.51-33.53C111.87,50.75,231.83-17.8,296.9,63.72c95.07-104.93,234.61,37.9,103.52,154.63Zm-66.87,54.2c-17.57,14.04-39.35,22.47-59.44,9.19-28.82-17.09-97.75-70.61-118.57-110.51-9.89,6.94-18.76,15.52-26.25,25.57h0c-15.74,20.83-23.16,47.94-22.07,74.64,1.51,20.87-17.31,53.52-24.71,72.41,13.41,3.01,29.9,5.71,32.41,22.02,0,0,6.16,34.54,6.16,34.54.83,4.63,4.84,7.99,9.54,7.99,21.55,2.47,66.59-10.13,73.19,19.94.97.84,6.28,33.19,9.48,31.16,0,0,70.45,0,70.45,0,50.74-1.92,7.54-87.1,40.54-149.75,5.22-11.83,8.32-24.31,9.26-37.2Zm95.94-154.33c-.67-67.91-82.12-94.08-121.81-26.25-2.24,3.83-6.35,6.18-10.78,6.18s-8.54-2.35-10.78-6.18c-35.74-65.69-121.97-43.3-121.81,26.25-7.18,45.53,117.41,158.78,141.88,142.49,28.93-18.58,123.3-83.75,123.3-142.49Z"></path></svg>