<svg width="58" height="58" viewBox="0 0 58 58" fill="none" xmlns="http://www.w3.org/2000/svg" class="h-8 w-8"><path d="M56.5466 0.946217C56.1969 0.801842 55.7928 0.880592 55.5247 1.14965L45.875 10.7993V3.68747C45.875 3.16997 45.4559 2.74997 44.9375 2.74997H6.5C3.39781 2.74997 0.875 5.27278 0.875 8.37497V51.5C0.875 54.6022 3.39781 57.125 6.5 57.125H44.9375C45.4559 57.125 45.875 56.705 45.875 56.1875V30.3256L50.2606 25.94C54.6875 21.5131 57.125 15.6275 57.125 9.36778V1.81247C57.125 1.43372 56.8972 1.09153 56.5466 0.946217ZM44 55.25H6.5C4.43187 55.25 2.75 53.5681 2.75 51.5C2.75 49.4318 4.43187 47.75 6.5 47.75H44V55.25ZM44 45.875H6.5C5.05813 45.875 3.74656 46.4243 2.75 47.3187V8.37497C2.75 6.30684 4.43187 4.62497 6.5 4.62497H44V12.6743L31.1497 25.5247C30.9734 25.7 30.875 25.939 30.875 26.1875V34.2368L25.5247 39.5872L26.8503 40.9128L32.2006 35.5625H40.25C40.4994 35.5625 40.7375 35.464 40.9128 35.2878L44 32.2006V45.875ZM55.25 9.36778C55.25 15.1278 53.0066 20.5418 48.935 24.6143L39.8619 33.6875H34.0756L49.3503 18.4128L48.0247 17.0872L32.75 32.3618V26.5756L55.25 4.07559V9.36778Z" fill="currentColor"></path></svg>