<?xml version="1.0" encoding="iso-8859-1"?>
<!-- Uploaded to: SVG Repo, www.svgrepo.com, Generator: SVG Repo Mixer Tools -->
<svg fill="#000000" height="800px" width="800px" version="1.1" id="Layer_1" xmlns="http://www.w3.org/2000/svg" xmlns:xlink="http://www.w3.org/1999/xlink" 
	 viewBox="0 0 512.853 512.853" xml:space="preserve">
<g transform="translate(1 1)">
	<g>
		<g>
			<path d="M481.168,307.009l-38.474-46.169c-1.636-98.979-80.859-179.955-179.16-184.41V50.627h8.533l8.533-8.533V7.96
				l-8.533-8.533h-34.133L229.4,7.96v34.133l8.533,8.533h8.533V76.43c-98.014,4.442-177.068,84.958-179.149,183.543l-39.461,47.353
				C11.512,310.624-1,325.227-1,342.467v23.893c0,5.12,3.413,8.533,8.533,8.533H140.76l-47.04,125.44
				c-0.853,2.56-0.853,5.12,0.853,7.68c1.707,1.707,4.267,3.413,6.827,3.413h307.2c2.56,0,5.12-1.707,6.827-3.413
				s1.707-5.12,0.853-7.68l-47.04-125.44h133.227c5.12,0,8.533-3.413,9.387-8.533v-23.893
				C511.853,324.589,498.399,309.549,481.168,307.009z M246.467,16.493h17.067V33.56h-17.067V16.493z M109.933,272.493h34.133
				v34.133h-34.133V272.493z M161.133,272.493h34.133v34.133h-34.133V272.493z M212.333,272.493h34.133v34.133h-34.133V272.493z
				 M263.533,272.493h34.133v34.133h-34.133V272.493z M314.733,272.493h34.133v34.133h-34.133V272.493z M365.933,272.493h34.133
				v34.133h-34.133V272.493z M417.133,272.493h12.8l28.16,34.133h-40.96V272.493z M255,93.293c91.307,0,166.4,71.68,170.667,162.133
				h-8.533h-51.2h-17.067h-34.133h-17.067h-34.133h-17.067h-34.133h-17.067h-34.133h-17.067h-51.2h-8.533
				C88.6,164.973,163.693,93.293,255,93.293z M80.067,272.493h12.8v34.133H51.053L80.067,272.493z M395.8,494.36H113.347
				l45.227-119.467h192.853L395.8,494.36z M493.933,357.827H16.067v-15.36c0-10.24,8.533-18.773,18.773-18.773h58.027h51.2h17.067
				h34.133h17.067h34.133h17.067h34.133h17.067h34.133h17.067h51.2h58.027c10.24,0,18.773,8.533,18.773,18.773V357.827z"/>
			<path d="M255,417.56c5.12,0,8.533-3.413,8.533-8.533s-3.413-8.533-8.533-8.533s-8.533,3.413-8.533,8.533
				S249.88,417.56,255,417.56z"/>
			<path d="M255,468.76c5.12,0,8.533-3.413,8.533-8.533V443.16c0-5.12-3.413-8.533-8.533-8.533s-8.533,3.413-8.533,8.533v17.067
				C246.467,465.347,249.88,468.76,255,468.76z"/>
			<path d="M323.267,417.56c5.12,0,8.533-3.413,8.533-8.533s-3.413-8.533-8.533-8.533s-8.533,3.413-8.533,8.533
				S318.147,417.56,323.267,417.56z"/>
			<path d="M323.267,468.76c5.12,0,8.533-3.413,8.533-8.533V443.16c0-5.12-3.413-8.533-8.533-8.533s-8.533,3.413-8.533,8.533v17.067
				C314.733,465.347,318.147,468.76,323.267,468.76z"/>
			<path d="M186.733,417.56c5.12,0,8.533-3.413,8.533-8.533s-3.413-8.533-8.533-8.533s-8.533,3.413-8.533,8.533
				S181.613,417.56,186.733,417.56z"/>
			<path d="M186.733,468.76c5.12,0,8.533-3.413,8.533-8.533V443.16c0-5.12-3.413-8.533-8.533-8.533s-8.533,3.413-8.533,8.533v17.067
				C178.2,465.347,181.613,468.76,186.733,468.76z"/>
			<path d="M169.667,204.227c5.12,0,8.533-3.413,8.533-8.533c0-23.893,18.773-42.667,42.667-42.667c5.12,0,8.533-3.413,8.533-8.533
				c0-5.12-3.413-8.533-8.533-8.533c-33.28,0-59.733,26.453-59.733,59.733C161.133,200.813,164.547,204.227,169.667,204.227z"/>
		</g>
	</g>
</g>
</svg>